Coordinates
version=1
nRows=9
nColumns=36
inDegrees=yes

Units are S.I. units (second, meters, Newtons, ...)
If the header above contains a line with 'inDegrees', this indicates whether rotational values are in degrees (yes) or radians (no).

endheader
time	pelvis_tilt	pelvis_list	pelvis_rotation	pelvis_tx	pelvis_ty	pelvis_tz	hip_flexion_r	hip_adduction_r	hip_rotation_r	knee_angle_r	knee_angle_r_beta	ankle_angle_r	subtalar_angle_r	mtp_angle_r	hip_flexion_l	hip_adduction_l	hip_rotation_l	knee_angle_l	knee_angle_l_beta	ankle_angle_l	subtalar_angle_l	mtp_angle_l	lumbar_extension	lumbar_bending	lumbar_rotation	arm_flex_r	arm_add_r	arm_rot_r	elbow_flex_r	pro_sup_r	arm_flex_l	arm_add_l	arm_rot_l	elbow_flex_l	pro_sup_l
      2.50416670	     -7.53704309	     -6.43251793	     -6.26622431	      0.12381645	      1.21127680	      0.15638392	     11.98205190	     -1.30820674	    -39.82379731	      6.23651041	      0.10884764	     -6.51092861	    -34.24909757	     -7.49999987	     10.35283543	    -25.25000476	     -5.15192084	      1.54448150	      0.02695629	     -1.23700330	      6.06575460	     -7.49999987	      4.05719000	     10.85297815	      6.98613964	      2.87456772	      4.51349657	    -62.38473884	    117.43715114	     54.92590143	     21.61720105	    -19.80707813	     50.91873681	    115.29535237	     68.01960241
      2.50833330	     -7.39803225	     -6.61744211	     -6.35524375	      0.12361809	      1.21006246	      0.15620276	     11.87373907	     -0.87336679	    -39.82077989	      6.15342149	      0.10739747	     -6.37895909	    -34.19771868	     -7.49999987	     10.27517247	    -25.69585549	     -5.37758299	      1.54209090	      0.02691456	     -1.52267930	      6.67995079	     -7.49999987	      4.03819366	     11.11081673	      6.99190503	      2.69098902	      4.79671666	    -62.14828376	    117.33995654	     54.45847099	     21.12653892	    -19.49467819	     49.98267987	    114.42389534	     68.73224581
      2.51250000	     -7.24878239	     -6.82889960	     -6.45588505	      0.11441616	      1.20643170	      0.15719326	     12.06958896	     -0.50979531	    -39.81692050	      6.25246946	      0.10912618	     -6.19752213	    -34.15799336	     -7.49999987	     10.42795347	    -26.13096631	     -5.57485020	      1.66402316	      0.02904268	     -1.65499634	      7.19493322	     -7.49999987	      3.68558115	     11.40185782	      7.38177717	      2.69653234	      4.74802742	    -62.18709866	    117.39231646	     54.92296205	     21.49504857	    -19.08078366	     49.57859816	    113.39113332	     68.23003531
      2.51666670	     -7.13139860	     -6.92498574	     -6.44757036	      0.11545956	      1.20523919	      0.16591970	     11.94004329	     -0.02269997	    -39.82155826	      6.30646077	      0.11006850	     -6.25073511	    -34.14977259	     -7.49999987	     10.52817083	    -26.59677212	     -5.41798515	      1.75092732	      0.03055945	     -2.09056912	      7.39710035	     -7.49999987	      3.57594497	     11.32471160	      7.52940334	      2.48058369	      5.36248063	    -62.03034535	    117.33964553	     54.91824653	     21.66189756	    -19.08766545	     49.39381130	    113.17768911	     68.23030499
      2.52083330	     -6.87737973	     -7.10122326	     -6.39181096	      0.11542272	      1.20479483	      0.16580825	     11.62825065	      0.44080135	    -39.82993012	      6.24936254	      0.10907195	     -6.63896643	    -34.19726494	     -7.49999987	     10.49730598	    -27.03914889	     -5.63908384	      1.86659787	      0.03257828	     -2.19726511	      8.10320274	     -7.49999987	      3.33369587	     11.57399113	      7.92796125	      2.05026616	      5.71831424	    -62.45934196	    117.56057322	     54.88590829	     21.93009060	    -18.49484584	     48.89794329	    112.11520598	     68.03007670
      2.52500000	     -6.53839515	     -7.27863755	     -6.33587069	      0.11165061	      1.20364161	      0.17015871	     11.22348852	      0.98488418	    -39.83417263	      5.95768081	      0.10398115	     -7.11507726	    -34.23697219	     -7.49999987	     10.38448249	    -27.53466335	     -5.81781194	      1.99195577	      0.03476619	     -2.39665184	      8.64567033	     -7.49999987	      3.04798863	     11.69208529	      8.21116396	      1.91174996	      6.26312974	    -62.40841674	    117.39466491	     56.49914274	     22.38172727	    -18.39156819	     48.72656740	    111.69520900	     66.50253377
      2.52916670	     -6.38669242	     -7.37839599	     -6.40507842	      0.10267951	      1.19995589	      0.17101566	     11.40978028	      1.23724140	    -39.84084598	      6.20125402	      0.10823230	     -7.23122195	    -34.30247021	     -7.49999987	     10.66060942	    -27.89553228	     -5.94636996	      2.24743175	      0.03922508	     -2.39956899	      8.96917640	     -7.49999987	      2.70770286	     11.79758796	      8.51326165	      2.20253951	      6.46304111	    -62.29429746	    117.34263082	     56.33324414	     23.13310925	    -18.26137594	     48.41487578	    111.21131096	     66.58253042
      2.53333330	     -6.22523054	     -7.47440241	     -6.47037206	      0.10294859	      1.19927214	      0.17067934	     11.53307674	      1.36209753	    -39.84905862	      6.44751378	      0.11253034	     -7.51976538	    -34.36742385	     -7.49999987	     10.83558055	    -28.17670029	     -6.17028286	      2.52077822	      0.04399588	     -2.41660848	      9.24121631	     -7.49999987	      2.39962666	     11.95660950	      9.02849626	      2.25803465	      6.80913228	    -62.73142930	    117.61380271	     56.69013082	     23.78616271	    -18.03125070	     48.30373786	    110.75243425	     66.26107116
      2.53750000	     -6.08052439	     -7.42649084	     -6.50165984	      0.10290815	      1.19914906	      0.17074810	     11.60839337	      1.30869033	    -39.85327226	      6.73251389	      0.11750453	     -7.62193828	    -34.40118086	     -7.49999987	     10.92989382	    -28.22683095	     -6.23794805	      2.75696669	      0.04811815	     -2.44520073	      9.11896874	     -7.49999987	      2.26304500	     12.04622279	      8.71011297	      2.31954329	      7.39068367	    -62.71095128	    117.57968696	     54.72202057	     23.52715373	    -18.04821134	     47.48371796	    110.71336018	     68.15823713
